<svg xmlns="http://www.w3.org/2000/svg" xmlns:xlink="http://www.w3.org/1999/xlink" version="1.1" id="Layer_1" x="0px" y="0px" enable-background="new 0 0 1024 1024" xml:space="preserve" viewBox="157.84 433.07 706.26 152.12">
<path fill="#000000" opacity="1.000000" stroke="none" d=" M299.220642,513.869141   C292.505615,521.878418 284.738556,528.453796 277.515289,535.580505   C262.686249,550.211365 247.849915,564.837036 233.213516,579.659302   C230.006912,582.906555 228.006561,583.750549 224.549301,579.848877   C218.923782,573.500244 212.555038,567.816650 206.710281,561.652954   C203.779785,558.562561 201.432129,557.614746 198.200775,561.315979   C195.699066,564.181396 192.555283,566.480103 189.756500,569.094482   C187.842529,570.882385 186.693222,572.256287 187.595734,575.751160   C188.703049,580.039124 183.500931,582.046936 180.678452,584.578796   C178.669724,586.380737 177.183716,583.762329 175.834534,582.443298   C172.617935,579.298584 169.560654,575.986694 166.272980,572.920410   C163.881454,570.689880 163.809784,568.812134 166.416550,566.817322   C169.334244,564.584656 170.951859,559.692810 176.171890,562.144836   C176.537796,562.316711 177.418793,561.736938 177.878601,561.310669   C182.485123,557.040588 187.053497,552.729370 192.253510,547.846802   C180.454498,536.324097 169.069397,525.205566 157.839005,514.238098   C159.272339,510.952332 161.651825,509.533813 163.498459,507.680847   C183.731888,487.378387 204.018936,467.129333 224.297913,446.872253   C228.854370,442.320740 228.972580,442.229034 233.595200,447.006409   C241.003540,454.662720 248.254303,462.471466 256.059052,470.731659   C269.935059,457.518707 282.791473,445.276611 295.611450,433.069183   C297.745544,435.168549 297.290863,436.753174 297.294098,438.181824   C297.319733,449.514526 297.219818,460.847839 297.308502,472.179810   C297.332397,475.229828 296.496918,477.620941 294.181152,479.678925   C289.462036,483.872711 284.881805,488.222717 280.002563,492.731842   C286.333984,500.836151 294.028931,506.084320 299.220642,513.869141  M241.107071,507.957550   C243.220963,509.196075 244.886978,508.404358 246.458130,506.858490   C257.856720,495.643463 269.273468,484.446930 280.677765,473.237701   C282.681213,471.268524 283.606476,469.068481 282.230469,465.870758   C280.951630,466.930176 280.024475,467.599548 279.211426,468.386780   C269.638184,477.656281 260.045288,486.906067 250.538925,496.243866   C246.636185,500.077484 242.895187,502.636841 236.607193,501.692535   C231.380264,500.907623 229.666931,499.277374 229.899002,494.330780   C230.132889,489.345123 229.949951,484.337708 229.873856,479.340973   C229.848373,477.668671 229.757111,475.690155 227.476334,475.650146   C225.134628,475.609100 224.494614,477.416779 224.413925,479.420837   C224.353653,480.918060 224.346313,482.419373 224.373932,483.917816   C224.502716,490.905212 225.202530,497.933990 224.676224,504.870453   C223.657944,518.291016 225.367722,521.680298 237.356140,526.909058   C240.620010,528.332581 242.867584,528.057190 243.611664,524.161194   C244.090530,521.653992 245.953384,520.204285 247.647903,518.623047   C260.802826,506.347229 273.655060,493.761841 286.205353,480.869568   C287.674805,479.360138 289.556763,478.125458 290.253601,475.692505   C287.301727,472.887573 285.518890,475.386047 283.709015,477.133026   C270.527374,489.856079 257.381317,502.615997 244.206360,515.346008   C242.892441,516.615601 241.592697,517.976135 240.058472,518.926575   C236.022247,521.427063 231.547089,519.546814 230.222626,514.965454   C229.529770,512.568848 229.639267,510.182190 231.456696,508.422577   C234.114609,505.849182 237.288544,506.643188 241.107071,507.957550  M261.942657,478.441467   C270.111511,470.633850 277.802521,462.286224 287.146332,454.824463   C288.576141,458.994110 287.837463,462.179138 288.176208,465.263000   C288.499847,468.209656 287.025177,472.114014 292.475067,473.269226   C292.585602,463.563293 293.151001,454.306000 292.160675,445.189606   C289.662659,444.941559 288.815979,446.089600 287.878540,446.984894   C274.269623,459.981384 260.689453,473.007996 247.066238,485.989471   C244.995758,487.962494 244.828430,490.137543 245.681427,493.365784   C251.765335,488.882751 256.342499,483.613434 261.942657,478.441467  M211.863358,510.883667   C211.105591,510.262177 210.196381,509.182739 209.294235,509.992554   C204.439774,514.350403 199.406448,518.558655 195.361191,523.654114   C197.655884,526.295776 199.588730,525.768860 201.453964,524.219299   C203.115417,522.838989 204.749908,521.412354 206.274689,519.884766   C208.262177,517.893555 209.989700,517.399597 212.039139,519.912842   C220.785385,530.638672 232.940659,538.563904 238.098969,552.128113   C245.116074,549.160034 245.792313,546.819641 241.117493,541.832520   C231.561249,531.637878 221.935715,521.508179 211.863358,510.883667  M181.396347,565.304626   C180.622299,566.247437 180.681824,567.226135 181.674286,567.842468   C183.196960,568.788086 184.209335,567.430176 185.108871,566.624573   C191.025757,561.325378 196.876938,555.952393 202.719925,550.571228   C205.189865,548.296570 203.963058,546.937744 201.566772,545.918457   C201.161819,546.099060 200.793091,546.161011 200.574646,546.375854   C194.317795,552.528564 188.075989,558.696655 181.396347,565.304626  M213.838211,536.653748   C214.332123,537.094788 214.825058,537.536926 215.320145,537.976624   C216.598938,539.112488 217.878632,540.289307 219.573181,538.616699   C221.266541,536.945251 220.123245,535.633728 218.988708,534.355652   C217.560638,532.746765 216.102615,531.164551 214.655853,529.572266   C213.505432,528.306152 212.361771,528.533875 211.223648,529.592590   C210.053848,530.680664 209.100525,531.820801 210.546631,533.362549   C211.451981,534.327698 212.400284,535.252625 213.838211,536.653748  M176.053986,569.590637   C174.844772,568.654785 173.789932,566.545471 172.020340,568.633606   C170.699554,570.192078 172.036774,571.413940 173.066620,572.493042   C174.560989,574.058960 176.102921,575.581360 177.665573,577.079590   C178.648697,578.022217 179.748444,579.036194 181.050888,577.602966   C182.081985,576.468323 181.364227,575.445984 180.547272,574.534607   C179.212845,573.045898 177.863403,571.570740 176.053986,569.590637  M208.584442,538.208862   C207.129318,536.683228 205.443604,536.477661 204.697815,538.560303   C203.522812,541.841370 206.644028,543.077332 208.464188,544.751099   C209.714218,545.900574 210.922714,545.006470 211.759399,543.822449   C212.435699,542.865417 212.171494,541.945129 211.434280,541.141418   C210.655350,540.292236 209.840942,539.475586 208.584442,538.208862  z"/>
<path fill="#000000" opacity="1.000000" stroke="none" d=" M693.820435,513.000000   C693.791687,502.682983 693.902832,492.862640 693.666504,483.050629   C693.571106,479.092194 695.036987,477.753296 698.891968,477.852386   C706.707458,478.053284 714.538635,477.723969 722.349670,478.000824   C733.507080,478.396240 740.905334,483.495148 743.188721,491.882965   C745.988831,502.168854 742.913086,509.321259 732.944824,515.762390   C732.408936,516.108643 731.971313,516.606873 731.006165,517.460388   C735.736755,524.017456 740.420837,530.510010 745.227905,537.173035   C736.240601,540.028625 732.580627,538.875122 727.658386,532.167603   C725.000916,528.546204 722.217773,525.015137 719.625061,521.348755   C718.160828,519.277954 716.446045,518.301025 713.817627,518.238098   C705.374756,518.036255 705.377502,517.937378 705.336853,526.497864   C705.328186,528.328125 705.321777,530.158508 705.303589,531.988708   C705.240723,538.305542 705.076599,538.247375 698.892212,538.363220   C694.831665,538.439209 693.694397,536.679626 693.787048,532.966431   C693.948853,526.481384 693.824951,519.989197 693.820435,513.000000  M718.370667,507.820526   C720.530823,507.744415 722.723755,507.878662 724.844177,507.547974   C729.124573,506.880341 732.174622,503.260376 732.245300,498.764771   C732.313904,494.396942 730.726013,490.435120 726.192932,489.589691   C719.543457,488.349548 712.721985,488.339233 706.106079,488.995758   C704.883972,491.418732 705.380066,493.618469 705.367310,495.737000   C705.294312,507.833527 705.321350,507.833679 718.370667,507.820526  z"/>
<path fill="#000000" opacity="1.000000" stroke="none" d=" M585.578857,520.397339   C583.009460,521.065002 583.146301,522.851501 583.105286,524.499023   C583.043335,526.991699 583.070496,529.486389 583.027283,531.979675   C582.918701,538.241943 582.781677,538.156921 576.516968,538.362061   C572.465942,538.494751 570.895325,537.190308 570.948120,532.988098   C571.163208,515.876892 571.130432,498.762390 571.158142,481.649017   C571.161987,479.294647 571.885132,477.837280 574.563721,477.867889   C583.040710,477.964722 591.557007,477.492920 599.987183,478.150482   C613.507019,479.204987 621.322388,487.494171 621.009827,499.431671   C620.706665,511.011444 611.366577,519.686157 598.479980,520.232788   C594.330261,520.408813 590.169006,520.314331 585.578857,520.397339  M591.644470,488.875000   C590.480591,488.879333 589.282166,489.067444 588.158691,488.856598   C582.952209,487.879364 581.844971,490.434570 582.390686,494.991577   C582.824219,498.611694 582.825928,502.287018 582.941895,505.940308   C583.015991,508.273987 583.832092,509.778809 586.442810,509.743683   C590.764282,509.685486 595.112671,509.947083 599.401428,509.550995   C605.366516,509.000092 608.938049,504.622437 608.781799,498.731171   C608.623413,492.760559 605.420898,489.516968 599.059448,489.021088   C596.908630,488.853455 594.739868,488.915009 591.644470,488.875000  z"/>
<path fill="#000000" opacity="1.000000" stroke="none" d=" M656.802246,500.115326   C655.630859,497.517212 654.614075,495.262146 653.613342,493.042633   C651.626160,493.320038 651.533447,494.844025 651.045837,495.982697   C646.135559,507.446625 641.237610,518.915894 636.370056,530.398010   C632.577332,539.344604 632.148743,539.588562 622.213318,537.765930   C621.207397,536.182495 622.371948,534.890503 622.928955,533.610962   C630.429565,516.379333 638.038696,499.194763 645.474976,481.935669   C646.781372,478.903564 648.575073,477.445709 651.901733,477.731506   C655.072571,478.003906 658.504700,476.821411 660.349731,481.063751   C668.174927,499.057037 676.195312,516.965454 684.118774,534.916199   C684.440186,535.644287 684.504211,536.486023 684.681946,537.248047   C676.569153,540.130615 673.127075,538.969299 670.532654,531.531250   C668.808594,526.588684 666.105469,524.819214 660.975464,525.267944   C655.889832,525.712708 650.734985,525.365234 645.637085,525.365234   C645.330444,512.577820 654.551270,514.676758 662.661865,514.434082   C660.554443,509.271454 658.755676,504.864929 656.802246,500.115326  z"/>
<path fill="#000000" opacity="1.000000" stroke="none" d=" M411.002991,521.831665   C414.776520,528.218201 420.401611,529.659302 426.732849,528.346680   C433.069611,527.033081 436.784637,522.759888 437.845795,516.326843   C439.594208,505.727600 438.318481,495.047760 438.623108,484.409027   C438.806641,477.998077 439.018890,477.714996 445.451263,477.911560   C448.250153,477.997131 450.397827,478.406555 450.272461,481.984711   C449.858734,493.791718 451.507416,505.698181 449.458771,517.402771   C446.674774,533.308655 436.502899,540.513062 419.647461,539.319275   C406.501404,538.388184 397.362091,528.226929 396.918854,513.485229   C396.608459,503.162079 396.974945,492.819977 396.778442,482.491302   C396.693787,478.039917 399.214966,477.767883 402.557465,477.815491   C405.784119,477.861511 408.492737,477.835754 408.384064,482.414490   C408.166626,491.575012 408.345062,500.744659 408.337769,509.910553   C408.334564,513.959473 408.916382,517.872314 411.002991,521.831665  z"/>
<path fill="#000000" opacity="1.000000" stroke="none" d=" M360.747009,488.787506   C357.998322,489.303162 354.530426,487.794922 353.709412,490.826935   C352.682251,494.620422 352.703888,498.808685 353.862518,502.653564   C354.398834,504.433258 356.717346,503.985870 358.339905,504.000549   C365.336365,504.063934 372.334320,504.141815 379.329926,504.060364   C383.255859,504.014709 384.373230,505.849274 384.390076,509.593628   C384.407288,513.424500 382.855865,514.484985 379.321869,514.411621   C372.161682,514.262939 364.993713,514.503113 357.832764,514.372864   C354.373322,514.309937 353.088898,515.636841 353.239136,519.100159   C353.448242,523.921814 353.094696,528.768005 353.308929,533.589172   C353.482269,537.489868 351.623352,538.522949 348.159149,538.302368   C345.041870,538.103943 341.636871,538.916992 341.669006,533.840942   C341.778656,516.515625 341.733734,499.188934 341.660248,481.863129   C341.647095,478.761261 343.110657,477.821411 345.956573,477.831848   C358.284515,477.876953 370.614838,477.957184 382.940002,477.758911   C388.442169,477.670380 387.221497,481.573608 387.627960,484.637177   C388.153778,488.600250 385.614258,488.835388 382.659332,488.907959   C375.501251,489.083862 368.356018,487.809509 360.747009,488.787506  z"/>
<path fill="#000000" opacity="1.000000" stroke="none" d=" M841.133423,520.331238   C841.129333,525.282104 841.062744,529.775146 841.139771,534.265686   C841.214844,538.639526 838.209839,538.309509 835.316345,538.265015   C832.458130,538.221008 829.311768,538.614258 829.621338,534.166321   C829.667358,533.504272 829.525879,532.819336 829.635315,532.172791   C831.623352,520.432617 826.727295,510.949158 820.231506,501.732666   C815.188660,494.577698 810.873230,486.910034 806.214661,479.438538   C812.797424,476.033325 818.129822,477.187469 821.481384,482.586212   C825.931213,489.754181 830.224121,497.019592 834.760254,504.534454   C837.927979,502.408112 838.727173,499.387390 840.320862,497.003326   C843.092468,492.857208 845.622437,488.550293 848.293457,484.335968   C852.816162,477.200012 855.296509,476.294434 863.934265,478.559448   C864.610168,480.489777 863.095398,481.649017 862.254639,482.982178   C856.044373,492.829071 849.813660,502.663513 843.506653,512.448547   C842.022766,514.750732 840.863708,517.056946 841.133423,520.331238  z"/>
<path fill="#000000" opacity="1.000000" stroke="none" d=" M769.917969,527.954224   C770.063354,516.637390 770.131348,505.810333 770.399780,494.988220   C770.500244,490.940460 769.355774,488.550781 764.803162,488.849792   C762.149109,489.024139 759.456299,488.680634 756.812256,488.918762   C751.986755,489.353333 750.316162,487.334961 750.585022,482.560822   C750.777283,479.146759 751.925537,477.803314 755.331482,477.826721   C769.325378,477.922791 783.320740,477.950623 797.314514,477.854279   C801.732544,477.823883 801.280579,480.691925 801.414307,483.589233   C801.559082,486.727570 800.855286,488.761108 797.159729,488.704041   C793.338745,488.644989 789.513245,488.925781 785.690857,488.899017   C782.471313,488.876495 781.320251,490.356873 781.368103,493.503906   C781.562683,506.318085 781.592957,519.134644 781.734802,531.949768   C781.769836,535.111328 782.659119,538.389832 777.463745,538.380554   C770.550598,538.368164 770.011841,538.200073 769.903931,532.444214   C769.878967,531.112000 769.913330,529.778687 769.917969,527.954224  z"/>
<path fill="#000000" opacity="1.000000" stroke="none" d=" M464.926208,531.858948   C464.935822,515.579712 465.016785,499.781372 464.905426,483.984406   C464.876038,479.818024 465.716705,477.581818 470.698639,477.675659   C475.465485,477.765411 477.152924,479.281281 477.058990,484.052277   C476.816772,496.353271 476.936859,508.661804 476.951355,520.967285   C476.959290,527.686890 477.007568,527.713196 483.519196,527.732483   C490.337189,527.752686 497.159698,527.892334 503.971588,527.689636   C507.933319,527.571777 509.222931,529.230530 509.214752,533.014771   C509.206879,536.667969 508.268066,538.494629 504.143799,538.418091   C493.005951,538.211365 481.855530,538.133972 470.722961,538.453857   C465.924988,538.591736 464.401886,536.710632 464.926208,531.858948  z"/>
<path fill="#000000" opacity="1.000000" stroke="none" d=" M529.356567,499.000183   C529.355225,507.317535 529.514282,515.139709 529.280945,522.950195   C529.167786,526.738525 530.608521,527.873291 534.225281,527.780640   C541.871338,527.584961 549.530640,527.880188 557.174988,527.652649   C561.427063,527.526123 562.110168,529.750610 562.141663,533.230286   C562.172424,536.630737 561.302368,538.466003 557.385742,538.402771   C546.078369,538.220276 534.765076,538.231018 523.456787,538.374390   C519.797241,538.420715 518.559082,537.097595 518.539917,533.436218   C518.451843,516.643311 519.142029,499.839508 518.062256,483.058899   C517.816406,479.238708 519.207336,477.622375 523.213867,477.815826   C526.844971,477.991150 529.796082,477.971863 529.433472,483.037598   C529.066223,488.167358 529.354431,493.344055 529.356567,499.000183  z"/>
</svg>